<?xml version="1.0" encoding="UTF-8" standalone="no"?>
<!-- Created with Inkscape (http://www.inkscape.org/) -->

<svg
   width="300"
   height="300"
   viewBox="0 0 79.374998 79.375002"
   version="1.1"
   id="svg8949"
   inkscape:version="1.1 (c68e22c387, 2021-05-23)"
   sodipodi:docname="Logo Rifa 2021-sin número.svg"
   xmlns:inkscape="http://www.inkscape.org/namespaces/inkscape"
   xmlns:sodipodi="http://sodipodi.sourceforge.net/DTD/sodipodi-0.dtd"
   xmlns="http://www.w3.org/2000/svg"
   xmlns:svg="http://www.w3.org/2000/svg">
  <sodipodi:namedview
     id="namedview8951"
     pagecolor="#ffffff"
     bordercolor="#666666"
     borderopacity="1.0"
     inkscape:pageshadow="2"
     inkscape:pageopacity="0.0"
     inkscape:pagecheckerboard="0"
     inkscape:document-units="px"
     showgrid="false"
     units="px"
     inkscape:zoom="0.74118967"
     inkscape:cx="211.82162"
     inkscape:cy="266.46351"
     inkscape:window-width="1920"
     inkscape:window-height="1001"
     inkscape:window-x="-9"
     inkscape:window-y="-9"
     inkscape:window-maximized="1"
     inkscape:current-layer="layer1" />
  <defs
     id="defs8946" />
  <g
     inkscape:label="Capa 1"
     inkscape:groupmode="layer"
     id="layer1">
    <g
       id="g194">
      <path
         d="m 39.712333,13.222941 c 12.78733,0 23.153468,9.329191 23.153468,20.838115 0,18.792341 -23.153468,38.699359 -23.153468,38.699359 0,0 -23.153466,-19.73998 -23.153466,-38.699359 0,-11.508924 10.366139,-20.838115 23.153466,-20.838115 z"
         id="Shape"
         fill="#ff6e6e"
         style="fill:#0cb1b2;fill-opacity:1;fill-rule:evenodd;stroke:none;stroke-width:1.65382" />
      <ellipse
         id="Oval"
         fill="#0c0058"
         fill-rule="nonzero"
         cx="39.712334"
         cy="36.376404"
         style="fill:#000000;fill-opacity:0;stroke:none;stroke-width:1.65382"
         rx="11.576733"
         ry="11.576731" />
      <ellipse
         style="fill:#ffffff;fill-opacity:1;stroke:#0fafb1;stroke-width:0.66695;stroke-miterlimit:4;stroke-dasharray:none;stroke-opacity:1"
         id="path42781"
         cx="39.563484"
         cy="35.772758"
         rx="19.292562"
         ry="18.846029" />
      <text
         xml:space="preserve"
         style="font-style:normal;font-weight:normal;font-size:7.93832px;line-height:1.25;font-family:sans-serif;fill:#000000;fill-opacity:1;stroke:none;stroke-width:0.0744218"
         x="31.228237"
         y="62.118095"
         id="text44571"><tspan
           sodipodi:role="line"
           id="tspan44569"
           style="font-style:normal;font-variant:normal;font-weight:normal;font-stretch:normal;font-size:7.93832px;font-family:Tahoma;-inkscape-font-specification:Tahoma;fill:#ffffff;stroke-width:0.0744218"
           x="31.228237"
           y="62.118095">2021</tspan></text>
      <g
         aria-label="CIENCIAS ECONÓMICAS"
         id="text76234"
         style="font-size:20.0919px;line-height:1.25;text-align:center;text-anchor:middle;stroke-width:0.376724"
         transform="matrix(0.28127946,0,0,0.2812794,-12.978342,20.590703)">
        <path
           d="m 100.23728,22.824098 q -0.0371,0.587538 -0.0556,1.074365 -0.014,0.478101 -0.13608,1.209503 -0.107677,0.61748 -0.317022,1.304051 -0.196135,0.682327 -0.581685,1.432784 -0.726269,1.413652 -1.715207,2.372501 -0.993181,0.94564 -2.278975,1.365948 -1.259374,0.411821 -2.775495,0.2285 -1.524848,-0.187804 -3.217739,-1.057532 -1.605629,-0.824898 -2.637811,-1.928717 -1.032183,-1.10382 -1.46546,-2.407306 -0.420547,-1.263857 -0.264845,-2.661814 0.160185,-1.406683 0.895419,-2.837787 0.537977,-1.04715 1.324531,-1.955562 0.791038,-0.917138 2.082592,-1.863901 l 2.050667,1.053537 -0.06725,0.130894 q -1.450229,0.611565 -2.402822,1.456733 -0.952593,0.845168 -1.571266,2.04939 -0.506595,0.986066 -0.591689,1.94603 -0.08934,0.946755 0.26428,1.91152 0.345132,0.938346 1.173808,1.794231 0.824433,0.842675 2.133369,1.515145 1.370021,0.703853 2.544378,0.843945 1.178841,0.131366 2.098774,-0.13499 0.959562,-0.279085 1.690639,-0.929232 0.726833,-0.663358 1.19308,-1.570887 0.641088,-1.247853 0.773894,-2.558307 0.132807,-1.310455 -0.233703,-2.700963 l 0.06276,-0.122167 z"
           style="font-size:20.0919px;font-family:Verdana;-inkscape-font-specification:Verdana"
           id="path10998" />
        <path
           d="m 105.26375,16.543798 -2.96028,4.951076 -1.27987,-0.765243 0.98173,-1.641939 -9.97794,-5.965875 -0.981726,1.641938 -1.27987,-0.765243 2.960282,-4.9510763 1.27987,0.7652431 -0.981726,1.6419392 9.97793,5.965875 0.98173,-1.641939 z"
           style="font-size:20.0919px;font-family:Verdana;-inkscape-font-specification:Verdana"
           id="path11000" />
        <path
           d="m 112.47768,5.8132251 -5.47246,7.9167829 -12.016401,-8.3063124 5.472461,-7.9167831 1.42034,0.9818072 -4.367928,6.3189004 3.292608,2.2760077 4.36793,-6.31890031 1.42034,0.98180731 -4.36793,6.3189003 4.46277,3.0848829 4.36793,-6.3189002 z"
           style="font-size:20.0919px;font-family:Verdana;-inkscape-font-specification:Verdana"
           id="path11002" />
        <path
           d="m 121.52749,-5.1665106 -1.55389,1.8337386 -14.44728,-3.1639039 9.96955,8.4480649 -1.17334,1.3846598 -11.14464,-9.4438204 1.94711,-2.2977867 13.18583,2.8922347 -9.10133,-7.7123474 1.17335,-1.38466 z"
           style="font-size:20.0919px;font-family:Verdana;-inkscape-font-specification:Verdana"
           id="path11004" />
        <path
           d="m 131.78057,-16.423212 q -0.23627,0.53922 -0.4205,0.990221 -0.17702,0.44434 -0.5424,1.089595 -0.31279,0.543174 -0.74477,1.116404 -0.41812,0.573772 -1.03754,1.146626 -1.1668,1.079096 -2.42448,1.640909 -1.25714,0.5479491 -2.60911,0.5020947 -1.32424,-0.044772 -2.68569,-0.7366357 -1.36812,-0.699067 -2.66037,-2.096349 -1.22564,-1.325257 -1.81697,-2.715994 -0.59132,-1.390736 -0.55159,-2.763771 0.0381,-1.331445 0.66353,-2.591357 0.63262,-1.266574 1.81383,-2.358992 0.86429,-0.799331 1.91456,-1.383128 1.05747,-0.590458 2.59529,-1.037196 l 1.56536,1.692584 -0.10804,0.09992 q -1.572,0.07746 -2.75657,0.544932 -1.18457,0.467475 -2.17851,1.386705 -0.81388,0.752703 -1.22285,1.625354 -0.40842,0.858787 -0.4069,1.886316 0.003,0.999801 0.48774,2.087869 0.48567,1.074205 1.48484,2.154577 1.04579,1.13079 2.10099,1.664906 1.06241,0.527454 2.01792,0.592537 0.99709,0.06671 1.90672,-0.293484 0.91017,-0.374055 1.65923,-1.066808 1.02996,-0.952536 1.60387,-2.138093 0.57392,-1.185558 0.70621,-2.61746 l 0.10083,-0.09325 z"
           style="font-size:20.0919px;font-family:Verdana;-inkscape-font-specification:Verdana"
           id="path11006" />
        <path
           d="m 138.88663,-20.314742 -4.63735,3.430949 -0.88691,-1.198772 1.5379,-1.137814 -6.91441,-9.345683 -1.5379,1.137815 -0.88691,-1.198771 4.63735,-3.430948 0.88691,1.198771 -1.53789,1.137814 6.91441,9.345683 1.53789,-1.137815 z"
           style="font-size:20.0919px;font-family:Verdana;-inkscape-font-specification:Verdana"
           id="path11008" />
        <path
           d="m 151.61849,-27.900726 -1.80233,1.018115 -3.24957,-2.840393 -5.50095,3.107424 0.75534,4.249351 -1.71691,0.969864 -2.55503,-15.334085 2.25505,-1.273851 z m -6.39323,-2.980058 -5.75664,-4.984724 1.28924,7.508301 z"
           style="font-size:20.0919px;font-family:Verdana;-inkscape-font-specification:Verdana"
           id="path11010" />
        <path
           d="m 162.18573,-36.210514 q 0.28984,0.802793 0.1947,1.723723 -0.0859,0.917599 -0.56298,1.705222 -0.52498,0.857081 -1.39239,1.545744 -0.85818,0.68533 -2.24231,1.185057 -1.48562,0.536374 -2.77592,0.689314 -1.28106,0.149608 -2.70488,0.04828 l -0.82622,-2.288421 0.12919,-0.04664 q 1.35587,0.490925 2.89145,0.468464 1.53558,-0.02246 2.73515,-0.455558 1.69786,-0.612998 2.40919,-1.58951 0.72056,-0.979844 0.33744,-2.041008 -0.32982,-0.913523 -0.93855,-1.183971 -0.5995,-0.273781 -1.59964,-0.183876 -0.7587,0.06531 -1.61403,0.238529 -0.8461,0.169884 -1.81703,0.311822 -1.96697,0.272084 -3.18929,-0.340069 -1.21643,-0.624712 -1.75946,-2.128796 -0.623,-1.725543 0.4385,-3.349996 1.05816,-1.63368 3.30045,-2.443237 1.44872,-0.523048 2.75747,-0.682651 1.30874,-0.159603 2.38731,-0.09007 l 0.77957,2.159236 -0.12918,0.04664 q -1.02421,-0.381201 -2.46341,-0.351814 -1.43331,0.01683 -2.7713,0.499898 -1.46717,0.52971 -2.14236,1.461883 -0.66596,0.92884 -0.31949,1.888501 0.30983,0.858158 0.92932,1.187304 0.6195,0.329145 1.82931,0.184402 0.6372,-0.08403 1.79267,-0.2926 1.15548,-0.208568 1.9821,-0.287975 1.67835,-0.147021 2.74997,0.39438 1.07161,0.541401 1.60465,2.017803 z"
           style="font-size:20.0919px;font-family:Verdana;-inkscape-font-specification:Verdana"
           id="path11012" />
        <path
           d="m 183.2012,-35.133948 -9.58845,0.827609 -1.25618,-14.55372 9.58845,-0.827609 0.14848,1.720252 -7.65317,0.660568 0.34421,3.987856 7.65316,-0.660568 0.14848,1.720251 -7.65316,0.660569 0.46653,5.405109 7.65317,-0.660569 z"
           style="font-size:20.0919px;font-family:Verdana;-inkscape-font-specification:Verdana"
           id="path11014" />
        <path
           d="m 197.62325,-35.491675 q -0.55237,0.203654 -1.00508,0.383636 -0.44292,0.180553 -1.16121,0.364708 -0.60827,0.15126 -1.32085,0.237477 -0.70336,0.09658 -1.54563,0.04749 -1.58661,-0.09248 -2.8635,-0.609134 -1.26654,-0.525874 -2.17096,-1.531826 -0.88598,-0.985223 -1.3315,-2.445956 -0.44495,-1.470527 -0.3342,-3.370538 0.10504,-1.802073 0.6971,-3.192499 0.59206,-1.390426 1.60895,-2.313867 0.98579,-0.895773 2.32729,-1.318762 1.35128,-0.422419 2.95748,-0.328795 1.17526,0.06851 2.32418,0.420462 1.15871,0.352528 2.54694,1.15083 l -0.13416,2.30156 -0.1469,-0.0086 q -1.14585,-1.078987 -2.30408,-1.608376 -1.15822,-0.529388 -2.50978,-0.60817 -1.10671,-0.06451 -2.01907,0.245914 -0.902,0.3012 -1.64133,1.014796 -0.71859,0.69515 -1.1662,1.799181 -0.43725,1.094809 -0.52288,2.56389 -0.0896,1.537638 0.25721,2.668323 0.35662,1.131255 0.97228,1.864869 0.64333,0.764708 1.5336,1.17038 0.90065,0.396448 1.91921,0.455819 1.40052,0.08164 2.65273,-0.326904 1.25221,-0.40854 2.37569,-1.306113 l 0.13711,0.008 z"
           style="font-size:20.0919px;font-family:Verdana;-inkscape-font-specification:Verdana"
           id="path11016" />
        <path
           d="m 213.63075,-44.490664 q 0.67104,1.144193 0.83819,2.63328 0.17675,1.491112 -0.19584,3.257374 -0.37258,1.766261 -1.14818,3.066506 -0.76398,1.29267 -1.81473,2.043579 -1.08765,0.783232 -2.40042,1.017654 -1.30318,0.236447 -2.84866,-0.08957 -1.50708,-0.317912 -2.64009,-1.078288 -1.1234,-0.75835 -1.78687,-1.890918 -0.66347,-1.132569 -0.84224,-2.614082 -0.16918,-1.479487 0.20543,-3.255348 0.36854,-1.747064 1.12089,-3.03216 0.75438,-1.294694 1.84608,-2.097125 1.04317,-0.762533 2.39637,-0.998455 1.3628,-0.233896 2.84108,0.07794 1.53588,0.323987 2.64766,1.089912 1.12341,0.75835 1.78133,1.869695 z m -1.33509,5.47352 q 0.58723,-2.783782 -0.34276,-4.554103 -0.92797,-1.779921 -3.0878,-2.235527 -2.17903,-0.459657 -3.74687,0.793785 -1.55621,1.245868 -2.14344,4.02965 -0.5933,2.81258 0.35791,4.577352 0.95324,1.755172 3.08427,2.204704 2.13104,0.449532 3.7024,-0.773087 1.58299,-1.230194 2.17629,-4.042774 z"
           style="font-size:20.0919px;font-family:Verdana;-inkscape-font-specification:Verdana"
           id="path11018" />
        <path
           d="m 226.05727,-26.322453 -2.22996,-0.896912 -1.54964,-14.708254 -4.87628,12.123683 -1.68384,-0.67726 5.45103,-13.552676 2.79427,1.123886 1.40999,13.425464 4.45161,-11.067867 1.68384,0.67726 z"
           style="font-size:20.0919px;font-family:Verdana;-inkscape-font-specification:Verdana"
           id="path11020" />
        <path
           d="m 245.68029,-29.636543 q 0.22701,1.306879 -0.13882,2.759973 -0.35756,1.458358 -1.32606,2.981677 -0.96851,1.523318 -2.15094,2.468858 -1.16889,0.942524 -2.41628,1.277117 -1.29329,0.351917 -2.60487,0.110926 -1.30331,-0.235727 -2.63621,-1.083169 -1.29979,-0.826387 -2.09406,-1.935896 -0.786,-1.104245 -1.01,-2.397581 -0.224,-1.293337 0.12829,-2.743416 0.36057,-1.444816 1.33434,-2.976413 0.95798,-1.506761 2.11333,-2.44627 1.16061,-0.947788 2.46442,-1.316263 1.24438,-0.348135 2.59434,-0.09437 1.35825,0.25903 2.6332,1.069626 1.32462,0.842178 2.09707,1.949438 0.78599,1.104245 1.01225,2.375761 z m -3.17034,4.657346 q 1.52645,-2.400882 1.27658,-4.38494 -0.24461,-1.992336 -2.10736,-3.176649 -1.87931,-1.19484 -3.78722,-0.571042 -1.89437,0.620782 -3.42081,3.021665 -1.54224,2.425719 -1.27055,4.412025 0.27696,1.978026 2.11487,3.146548 1.83792,1.168522 3.73832,0.574825 1.91393,-0.596713 3.45617,-3.022432 z m 5.13872,-11.904066 -4.22873,1.659345 -1.23355,-0.784278 3.45051,-2.154124 z"
           style="font-size:20.0919px;font-family:Verdana;-inkscape-font-specification:Verdana"
           id="path11022" />
        <path
           d="m 252.19858,-6.8648539 -1.41474,-1.3310581 8.62498,-9.167271 -8.82686,3.454624 -0.84313,-0.793257 2.93209,-9.000699 -8.62499,9.167271 -1.32186,-1.243666 10.00983,-10.639179 1.9292,1.81508 -2.73633,8.592196 8.31671,-3.341911 1.96493,1.848691 z"
           style="font-size:20.0919px;font-family:Verdana;-inkscape-font-specification:Verdana"
           id="path11024" />
        <path
           d="m 257.89987,0.22403227 -3.63603,-4.47836507 1.15768,-0.9399249 1.20582,1.4851721 9.02528,-7.3277034 -1.20583,-1.485172 1.15768,-0.939925 3.63602,4.478365 -1.15767,0.9399248 -1.20583,-1.4851721 -9.02527,7.3277036 1.20582,1.48517212 z"
           style="font-size:20.0919px;font-family:Verdana;-inkscape-font-specification:Verdana"
           id="path11026" />
        <path
           d="m 266.96654,11.725417 q -0.49152,-0.324031 -0.90488,-0.581855 -0.40801,-0.249599 -0.98221,-0.718801 -0.48248,-0.400118 -0.97442,-0.9227954 -0.49483,-0.5091051 -0.95472,-1.2164499 -0.8663,-1.3324403 -1.2074,-2.6669968 -0.32753,-1.3316791 -0.0538,-2.6564351 0.26801,-1.2976109 1.18008,-2.52249923 0.9203,-1.23023584 2.51594,-2.26765957 1.51339,-0.9839482 2.98407,-1.3316454 1.47069,-0.3476971 2.81725,-0.076408 1.30583,0.2626575 2.44187,1.0920746 1.1414,0.8376421 2.01839,2.18653223 0.64171,0.98699277 1.03954,2.12083937 0.40318,1.1420716 0.58351,2.7332836 l -1.93287,1.256673 -0.0802,-0.123374 q 0.18942,-1.5624648 -0.0711,-2.8090171 -0.26048,-1.2465523 -0.99844,-2.38159401 -0.60427,-0.9294182 -1.39522,-1.48002856 -0.77738,-0.54773293 -1.79037,-0.71994273 -0.98586,-0.166455 -2.14028,0.12774 -1.14085,0.29707241 -2.37459,1.09920413 -1.29131,0.83956454 -1.99614,1.78928457 -0.69947,0.957945 -0.92516,1.8886916 -0.23431,0.9714641 -0.0331,1.9288952 0.2148,0.9603084 0.77094,1.8157021 0.7647,1.1761664 1.83617,1.9422542 1.07146,0.7660878 2.46039,1.1385462 l 0.0749,0.115149 z"
           style="font-size:20.0919px;font-family:Verdana;-inkscape-font-specification:Verdana"
           id="path11028" />
        <path
           d="m 272.47335,25.067581 -0.92008,-1.854299 3.01044,-3.092697 -2.80819,-5.659565 -4.28372,0.526559 -0.87647,-1.766417 15.44896,-1.729683 1.15119,2.32007 z m 3.31835,-6.224366 5.28603,-5.481267 -7.56659,0.885067 z"
           style="font-size:20.0919px;font-family:Verdana;-inkscape-font-specification:Verdana"
           id="path11030" />
        <path
           d="m 280.84588,35.545016 q -0.79949,0.298831 -1.72143,0.214021 -0.91851,-0.07562 -1.71143,-0.543801 -0.86292,-0.515334 -1.56127,-1.374961 -0.69492,-0.850437 -1.21015,-2.228869 -0.55301,-1.479516 -0.72041,-2.768013 -0.16398,-1.279307 -0.0786,-2.704172 l 2.27901,-0.851841 0.0481,0.128654 q -0.47568,1.361293 -0.43599,2.896523 0.0397,1.53523 0.48621,2.72987 0.63202,1.690877 1.61645,2.391206 0.98787,0.709519 2.04466,0.314512 0.90977,-0.340049 1.17337,-0.951774 0.26704,-0.602536 0.16591,-1.601607 -0.0738,-0.757913 -0.25662,-1.611245 -0.17937,-0.844144 -0.33219,-1.813416 -0.29414,-1.963793 0.30426,-3.192909 0.61102,-1.22336 2.10892,-1.783239 1.71845,-0.642316 3.35471,0.400886 1.64545,1.039767 2.48011,3.272826 0.53927,1.442759 0.71355,2.749635 0.17428,1.306875 0.11686,2.386152 l -2.15036,0.803753 -0.0481,-0.128653 q 0.36968,-1.02842 0.32415,-2.467205 -0.0329,-1.433029 -0.53096,-2.765513 -0.54614,-1.461138 -1.48583,-2.125824 -0.93626,-0.655497 -1.89197,-0.298273 -0.85463,0.31944 -1.1768,0.942585 -0.32218,0.623145 -0.16387,1.831255 0.0912,0.636219 0.3127,1.789282 0.22152,1.153063 0.3102,1.978737 0.16584,1.676598 -0.3635,2.75422 -0.52934,1.077623 -1.99967,1.627198 z"
           style="font-size:20.0919px;font-family:Verdana;-inkscape-font-specification:Verdana"
           id="path11032" />
      </g>
    </g>
  </g>
</svg>
